<svg width="8" height="13" viewBox="0 0 8 13" fill="none" xmlns="http://www.w3.org/2000/svg">
<path d="M1.75 3.5C1.75 2.53477 2.53477 1.75 3.5 1.75H4.375C5.34023 1.75 6.125 2.53477 6.125 3.5V3.59844C6.125 4.19453 5.82148 4.74961 5.32109 5.06953L4.16719 5.81055C3.47812 6.25352 3.0625 7.01641 3.0625 7.83398V7.875C3.0625 8.35898 3.45352 8.75 3.9375 8.75C4.42148 8.75 4.8125 8.35898 4.8125 7.875V7.83672C4.8125 7.6125 4.92734 7.40469 5.11328 7.28437L6.26719 6.54336C7.26797 5.89805 7.875 4.79063 7.875 3.59844V3.5C7.875 1.5668 6.3082 0 4.375 0H3.5C1.5668 0 0 1.5668 0 3.5C0 3.98398 0.391016 4.375 0.875 4.375C1.35898 4.375 1.75 3.98398 1.75 3.5ZM3.9375 12.25C4.22758 12.25 4.50578 12.1348 4.7109 11.9296C4.91602 11.7245 5.03125 11.4463 5.03125 11.1562C5.03125 10.8662 4.91602 10.588 4.7109 10.3829C4.50578 10.1777 4.22758 10.0625 3.9375 10.0625C3.64742 10.0625 3.36922 10.1777 3.1641 10.3829C2.95898 10.588 2.84375 10.8662 2.84375 11.1562C2.84375 11.4463 2.95898 11.7245 3.1641 11.9296C3.36922 12.1348 3.64742 12.25 3.9375 12.25Z" fill="white"/>
</svg>
