<svg width="14" height="11" viewBox="0 0 14 11" fill="none" xmlns="http://www.w3.org/2000/svg">
<path d="M2.07891 4.49531L0 8.05781V1.5C0 0.672656 0.672656 0 1.5 0H4.25391C4.65234 0 5.03438 0.157031 5.31563 0.438281L5.93672 1.05937C6.21797 1.34062 6.6 1.49766 6.99844 1.49766H9.75C10.5773 1.49766 11.25 2.17031 11.25 2.99766V3.74766H3.375C2.84063 3.74766 2.34844 4.03125 2.07891 4.49297V4.49531ZM2.72578 4.87266C2.86172 4.64062 3.10781 4.5 3.375 4.5H12.75C13.0195 4.5 13.2656 4.64297 13.3992 4.87734C13.5328 5.11172 13.5328 5.39766 13.3969 5.62969L10.7719 10.1297C10.6383 10.3594 10.3922 10.5 10.125 10.5H0.75C0.480469 10.5 0.234375 10.357 0.100781 10.1227C-0.0328125 9.88828 -0.0328125 9.60234 0.103125 9.37031L2.72813 4.87031L2.72578 4.87266Z" fill="white"/>
</svg>
